<svg xmlns="http://www.w3.org/2000/svg" viewBox="0 0 400 104" preserveAspectRatio="xMidYMid slice" focusable="false"><path class="art-frame" d="M88 90V78h45V66h45V54h45V42h45V30h45v60z"/><path class="art-line" d="M88 90h225"/><circle class="art-person" cx="110.5" cy="63" r="4.5"/><path class="art-person" d="M103 77a7.5 7.5 0 0 1 15 0z"/><path class="art-ok art-dashed" d="M119.5 58q14-12 30-9"/><path class="art-dot" d="M155.5 49.8l-7.8-3.2.9 8.4z"/><circle class="art-person-on" cx="155.5" cy="51" r="4.5"/><path class="art-person-on" d="M148 65a7.5 7.5 0 0 1 15 0z"/><path class="art-ok art-dashed" d="M164.5 46q14-12 30-9"/><path class="art-dot" d="M200.5 37.8l-7.8-3.2.9 8.4z"/><circle class="art-person" cx="200.5" cy="39" r="4.5"/><path class="art-person" d="M193 53a7.5 7.5 0 0 1 15 0z"/><path class="art-ok art-dashed" d="M209.5 34q14-12 30-9"/><path class="art-dot" d="M245.5 25.8l-7.8-3.2.9 8.4z"/><circle class="art-glow" cx="290.5" cy="22" r="11"/><path class="art-ok" d="M284 22l4.5 4.5 8.5-9"/></svg>
