<svg xmlns="http://www.w3.org/2000/svg" viewBox="0 0 400 104" preserveAspectRatio="xMidYMid slice" focusable="false"><path class="art-hair" d="M146 34L161.59 43L161.59 61L146 70L130.41 61L130.41 43zM146 52L146 16M146 52L177.18 34M146 52L177.18 70M146 52L146 88M146 52L114.82 70M146 52L114.82 34"/><path class="art-line" d="M146 16L177.18 34L177.18 70L146 88L114.82 70L114.82 34z"/><path class="art-area" d="M146 23.2L164.71 41.2L177.18 70L146 73.6L133.53 59.2L121.06 37.6z"/><circle class="art-dot" cx="146" cy="23.2" r="2.6"/><circle class="art-dot" cx="164.71" cy="41.2" r="2.6"/><circle class="art-dot" cx="177.18" cy="70" r="2.6"/><circle class="art-dot" cx="146" cy="73.6" r="2.6"/><circle class="art-dot" cx="133.53" cy="59.2" r="2.6"/><circle class="art-dot" cx="121.06" cy="37.6" r="2.6"/><rect class="art-heat-4" x="212" y="22" width="13" height="13" rx="2"/><rect class="art-heat-3" x="228" y="22" width="13" height="13" rx="2"/><rect class="art-heat-2" x="244" y="22" width="13" height="13" rx="2"/><rect class="art-heat-3" x="260" y="22" width="13" height="13" rx="2"/><rect class="art-heat-1" x="276" y="22" width="13" height="13" rx="2"/><rect class="art-heat-2" x="212" y="38" width="13" height="13" rx="2"/><rect class="art-heat-4" x="228" y="38" width="13" height="13" rx="2"/><rect class="art-heat-3" x="244" y="38" width="13" height="13" rx="2"/><rect class="art-heat-1" x="260" y="38" width="13" height="13" rx="2"/><rect class="art-heat-2" x="276" y="38" width="13" height="13" rx="2"/><rect class="art-heat-3" x="212" y="54" width="13" height="13" rx="2"/><rect class="art-heat-2" x="228" y="54" width="13" height="13" rx="2"/><rect class="art-heat-4" x="244" y="54" width="13" height="13" rx="2"/><rect class="art-heat-4" x="260" y="54" width="13" height="13" rx="2"/><rect class="art-heat-3" x="276" y="54" width="13" height="13" rx="2"/><rect class="art-heat-1" x="212" y="70" width="13" height="13" rx="2"/><rect class="art-heat-3" x="228" y="70" width="13" height="13" rx="2"/><rect class="art-heat-2" x="244" y="70" width="13" height="13" rx="2"/><rect class="art-heat-3" x="260" y="70" width="13" height="13" rx="2"/><rect class="art-heat-4" x="276" y="70" width="13" height="13" rx="2"/></svg>
