<svg xmlns="http://www.w3.org/2000/svg" viewBox="0 0 400 104" preserveAspectRatio="xMidYMid slice" focusable="false"><path class="art-ok art-wave" d="M90 48v8M97 45v14M104 41v22M111 37v30M118 43v18M125 34v36M132 39v26M139 32v40M146 42v20M153 37v30M160 44v16M167 41v22M174 47v10"/><path class="art-line" d="M186 52h26"/><path class="art-fill" d="M220 52l-8.5-4.8v9.6z"/><path class="art-frame" d="M234 14h62l16 16v54a6 6 0 0 1-6 6h-72a6 6 0 0 1-6-6V20a6 6 0 0 1 6-6z"/><path class="art-line" d="M296 14v10a6 6 0 0 0 6 6h10"/><path class="art-bar" d="M240 32h34"/><path class="art-muted" d="M240 44h58M240 53h48"/><circle class="art-dot" cx="242" cy="64" r="2.2"/><circle class="art-dot" cx="242" cy="74" r="2.2"/><path class="art-muted" d="M250 64h40M250 74h28"/><rect class="art-dot" x="282" y="68.5" width="2.5" height="11" rx="1"/></svg>
